<?xml version="1.0" encoding="utf-8"?>
<!-- Generator: Adobe Illustrator 19.2.0, SVG Export Plug-In . SVG Version: 6.00 Build 0)  -->
<svg version="1.1" xmlns="http://www.w3.org/2000/svg" xmlns:xlink="http://www.w3.org/1999/xlink" x="0px" y="0px"
	 viewBox="0 0 252.5 67.3" style="enable-background:new 0 0 252.5 67.3;" xml:space="preserve">
<style type="text/css">
	.st0{display:none;}
	.st1{display:inline;fill:#231F20;}
	.st2{fill:#FFFFFF;}
</style>
<g id="Layer_2" class="st0">
	<rect x="-8" y="-20.5" class="st1" width="269.6" height="126.6"/>
</g>
<g id="Layer_1">
	<g id="XMLID_16_">
		
			<ellipse id="XMLID_40_" transform="matrix(0.9928 -0.1196 0.1196 0.9928 -1.7008 2.3839)" class="st2" cx="19" cy="15.4" rx="7" ry="9.1"/>
		<path id="XMLID_21_" class="st2" d="M0,25.3c0,0,10,5.5,20.7,4.2s20.7-9.4,20.7-9.4S29.4,33.6,22.2,34.4S1,28.4,0,25.3z"/>
		<path id="XMLID_18_" class="st2" d="M6.4,67.3c0,0,6-8.1,5.3-17S3.9,32.8,3.9,32.8s12.3,10.4,12.7,16.5S9.4,66.6,6.4,67.3z"/>
		<path id="XMLID_17_" class="st2" d="M36,32.8c0,0-5.6,7.3-5,15.2s7.4,15.4,7.4,15.4s-11.7-9-12.1-14.4S33.1,33.5,36,32.8z"/>
	</g>
	<g>
		<path class="st2" d="M74.8,27.3c0.8,0.5,1.5,1.1,2,1.9s0.7,1.7,0.7,2.7c0,0.8-0.2,1.6-0.6,2.3c-0.4,0.7-0.9,1.2-1.5,1.6
			c0.8,0.5,1.4,1.2,1.8,2s0.6,1.7,0.6,2.7c0,1-0.2,1.8-0.7,2.6c-0.5,0.8-1.2,1.4-2,1.9c-0.8,0.5-1.7,0.7-2.7,0.7h-7.4V26.6h7
			C73,26.6,73.9,26.8,74.8,27.3z M67.5,34.8h4.7c0.8,0,1.6-0.3,2.1-0.9s0.8-1.3,0.8-2.1c0-0.8-0.3-1.5-0.9-2
			c-0.6-0.5-1.3-0.8-2.1-0.8h-4.6V34.8z M67.5,43.3h5c0.8,0,1.6-0.3,2.2-0.9c0.6-0.6,0.9-1.3,0.9-2.1s-0.3-1.6-0.8-2.2
			c-0.5-0.6-1.2-0.9-1.9-0.9h-5.4V43.3z"/>
		<path class="st2" d="M92.7,31.7c1.2,0.7,2.2,1.7,2.9,2.9c0.7,1.2,1.1,2.5,1.1,4c0,1.4-0.4,2.7-1.1,4c-0.7,1.2-1.7,2.2-2.9,2.9
			c-1.2,0.7-2.5,1.1-4,1.1c-1.4,0-2.8-0.4-4-1.1s-2.2-1.7-2.9-2.9c-0.7-1.2-1.1-2.5-1.1-4c0-1.4,0.4-2.7,1.1-4
			c0.7-1.2,1.7-2.2,2.9-2.9c1.2-0.7,2.5-1.1,4-1.1C90.2,30.7,91.5,31,92.7,31.7z M86,33.8c-0.8,0.5-1.5,1.2-2,2
			c-0.5,0.8-0.7,1.8-0.7,2.7s0.2,1.9,0.7,2.7c0.5,0.8,1.2,1.5,2,2s1.8,0.7,2.7,0.7c1,0,1.9-0.2,2.7-0.7s1.5-1.2,2-2
			c0.5-0.8,0.7-1.8,0.7-2.7s-0.2-1.9-0.7-2.7c-0.5-0.8-1.2-1.5-2-2s-1.8-0.7-2.7-0.7C87.8,33.1,86.8,33.3,86,33.8z"/>
		<path class="st2" d="M111.6,26.6h2.4v19.1h-2.4v-1.3c-0.4,0.5-1,1-1.8,1.4c-0.9,0.4-1.8,0.6-2.9,0.6c-1.3,0-2.6-0.3-3.7-1
			c-1.1-0.7-2-1.6-2.6-2.8c-0.6-1.2-1-2.6-1-4.1c0-1.5,0.3-2.8,0.9-4c0.6-1.2,1.4-2.1,2.5-2.8c1.1-0.7,2.4-1,3.9-1
			c0.6,0,1.2,0.1,1.9,0.3c0.7,0.2,1.2,0.4,1.8,0.7c0.5,0.3,0.9,0.6,1.1,0.8V26.6z M104.2,33.9c-0.7,0.5-1.3,1.2-1.6,2
			c-0.4,0.8-0.6,1.7-0.6,2.7c0,0.8,0.2,1.7,0.6,2.5c0.4,0.8,0.9,1.5,1.7,2.1c0.7,0.6,1.6,0.8,2.6,0.8c1.3,0,2.4-0.4,3.4-1.3
			c0.9-0.9,1.4-2.3,1.4-4.2c0-1.8-0.5-3.2-1.4-4.1s-2-1.4-3.4-1.4C105.8,33.1,104.9,33.4,104.2,33.9z"/>
		<path class="st2" d="M123.8,48.8c-0.4,0.9-0.7,1.6-1,2.2c-0.3,0.5-0.7,0.9-1.2,1.2c-0.5,0.3-1.1,0.5-1.8,0.5c-0.5,0-0.9,0-1.3-0.1
			c-0.3-0.1-0.8-0.3-1.3-0.5l0.8-2.1c0.1,0,0.3,0.1,0.5,0.2c0.3,0.1,0.6,0.2,0.9,0.2c0.4,0,0.6-0.1,0.8-0.3s0.4-0.4,0.5-0.7
			c0.1-0.3,0.4-0.9,0.8-1.8l0.8-2L117,31.4h2.5l4.2,10.8l4.2-10.8h2.5L123.8,48.8z"/>
		<path class="st2" d="M150.3,29v16.7h-2.4V29h-5.8v-2.4h14V29H150.3z"/>
		<path class="st2" d="M171,32.4c1.1,1.1,1.6,3.1,1.6,5.8v7.5h-2.4v-7.6c0-1.7-0.3-3-0.9-3.8c-0.6-0.8-1.6-1.2-3-1.2
			c-0.7,0-1.4,0.2-2.1,0.5c-0.6,0.4-1.2,0.9-1.6,1.6c-0.4,0.7-0.6,1.6-0.6,2.6v7.8h-2.4V26.6h2.4v5.9c0.3-0.5,0.9-0.9,1.7-1.3
			c0.8-0.4,1.7-0.6,2.7-0.6C168.4,30.7,169.9,31.3,171,32.4z"/>
		<path class="st2" d="M187.4,45.5c-1.1,0.6-2.4,0.9-3.8,0.9c-1.5,0-2.8-0.3-4-1s-2.1-1.6-2.8-2.9c-0.7-1.2-1-2.5-1-4
			c0-1.4,0.3-2.8,1-4c0.7-1.2,1.6-2.2,2.8-2.9c1.2-0.7,2.4-1,3.8-1c1.4,0,2.6,0.3,3.7,0.9c1.1,0.6,2,1.5,2.7,2.6
			c0.7,1.1,1,2.4,1,3.8c0,0.6-0.1,1.2-0.3,1.8h-12.3c0.1,0.6,0.4,1.3,1,1.9c0.5,0.7,1.2,1.2,1.9,1.6s1.6,0.6,2.4,0.6
			c0.9,0,1.7-0.2,2.5-0.6c0.8-0.4,1.4-0.9,1.9-1.5l2.2,1.1C189.4,44.1,188.5,44.9,187.4,45.5z M186.9,34.3c-0.9-0.8-2-1.2-3.4-1.2
			c-1.5,0-2.6,0.4-3.5,1.3c-0.9,0.8-1.4,1.9-1.7,3.1h10.1C188.3,36.2,187.8,35.1,186.9,34.3z"/>
		<path class="st2" d="M201.7,30.9c0.4,0.1,0.8,0.3,1.3,0.7l-1.3,2.4c-0.3-0.3-0.6-0.5-0.9-0.6c-0.3-0.1-0.7-0.2-1.2-0.2
			c-0.5,0-0.9,0.2-1.4,0.5c-0.4,0.4-0.8,0.8-1,1.4c-0.3,0.6-0.4,1.2-0.4,1.9v8.8h-2.4V31.4h2.4v1.2c0.3-0.5,0.8-0.9,1.5-1.3
			s1.3-0.6,2.1-0.6C200.8,30.7,201.3,30.8,201.7,30.9z"/>
		<path class="st2" d="M217.8,45.7h-2.4v-1.9c-0.2,0.4-0.6,0.8-1.1,1.2s-1.1,0.8-1.8,1c-0.7,0.3-1.5,0.4-2.3,0.4
			c-1.1,0-2.1-0.2-2.9-0.6c-0.9-0.4-1.6-1-2.1-1.8s-0.8-1.6-0.8-2.6c0-0.8,0.2-1.6,0.6-2.4s1.1-1.4,2-1.8c0.9-0.5,2.1-0.7,3.4-0.7
			c1.2,0,2.3,0.1,3.1,0.2c0.8,0.1,1.3,0.2,1.5,0.2c-0.3-2.6-1.7-3.9-4.2-3.9c-1,0-1.9,0.1-2.7,0.4c-0.8,0.3-1.4,0.6-1.9,1l-1.2-1.9
			c0.8-0.6,1.7-1,2.7-1.3c1-0.3,2-0.4,2.8-0.4c2.7,0,4.6,0.8,5.7,2.5c0.5,0.8,0.8,1.7,1,2.8c0.2,1.1,0.3,2.4,0.3,4V45.7z M213,43.4
			c0.8-0.4,1.4-1,1.8-1.7c0.4-0.7,0.6-1.6,0.6-2.5c0,0-0.6-0.1-1.8-0.2c-1.2-0.1-2.3-0.1-3.3-0.1c-0.9,0-1.7,0.2-2.4,0.6s-1,1-1,1.8
			c0,0.8,0.3,1.5,0.9,2c0.6,0.5,1.4,0.8,2.5,0.8C211.3,44,212.2,43.8,213,43.4z"/>
		<path class="st2" d="M224.3,51.9h-2.4V31.4h2.4v1.3c0.4-0.5,1-1,1.8-1.4c0.9-0.4,1.8-0.6,2.9-0.6c1.3,0,2.6,0.3,3.7,1
			c1.1,0.7,2,1.6,2.6,2.8s1,2.6,1,4.1c0,1.5-0.3,2.8-0.9,4c-0.6,1.2-1.4,2.1-2.5,2.8c-1.1,0.7-2.4,1-3.9,1c-0.6,0-1.2-0.1-1.9-0.3
			c-0.7-0.2-1.2-0.4-1.8-0.7c-0.5-0.3-0.9-0.6-1.1-0.8V51.9z M231.7,43.2c0.7-0.5,1.3-1.2,1.6-2s0.6-1.7,0.6-2.7
			c0-0.8-0.2-1.7-0.6-2.5c-0.4-0.8-0.9-1.5-1.7-2.1c-0.7-0.6-1.6-0.8-2.6-0.8c-1.3,0-2.4,0.4-3.4,1.3c-0.9,0.9-1.4,2.3-1.4,4.2
			c0,1.8,0.5,3.2,1.4,4.1c0.9,0.9,2,1.4,3.4,1.4C230.1,44,231,43.8,231.7,43.2z"/>
		<path class="st2" d="M245.7,48.8c-0.4,0.9-0.7,1.6-1,2.2c-0.3,0.5-0.7,0.9-1.2,1.2c-0.5,0.3-1.1,0.5-1.8,0.5c-0.5,0-0.9,0-1.3-0.1
			c-0.3-0.1-0.8-0.3-1.3-0.5l0.8-2.1c0.1,0,0.3,0.1,0.5,0.2c0.3,0.1,0.6,0.2,0.9,0.2c0.4,0,0.6-0.1,0.8-0.3c0.2-0.2,0.4-0.4,0.5-0.7
			c0.1-0.3,0.4-0.9,0.8-1.8l0.8-2l-5.5-14.2h2.5l4.2,10.8l4.2-10.8h2.5L245.7,48.8z"/>
	</g>
</g>
</svg>
