<?xml version="1.0" encoding="utf-8"?>
<!-- Generator: Adobe Illustrator 19.2.0, SVG Export Plug-In . SVG Version: 6.00 Build 0)  -->
<svg version="1.1" xmlns="http://www.w3.org/2000/svg" xmlns:xlink="http://www.w3.org/1999/xlink" x="0px" y="0px"
	 viewBox="0 0 131.9 70.2" style="enable-background:new 0 0 131.9 70.2;" xml:space="preserve">
<style type="text/css">
	.st0{display:none;}
	.st1{display:inline;fill:#0079FF;}
	.st2{fill:#FFFFFF;}
</style>
<g id="Layer_1" class="st0">
	<rect x="-157.5" y="-37.8" class="st1" width="442" height="143"/>
</g>
<g id="Layer_2">
	<g>
		<path class="st2" d="M8.1,51.2c0.6,0.3,1,0.8,1.4,1.3C9.9,53,10,53.6,10,54.3c0,0.6-0.1,1.1-0.4,1.6c-0.3,0.5-0.6,0.9-1,1.1
			c0.6,0.4,1,0.8,1.3,1.4c0.3,0.6,0.4,1.2,0.4,1.9c0,0.7-0.2,1.3-0.5,1.8c-0.3,0.6-0.8,1-1.4,1.3C7.8,63.9,7.2,64,6.5,64H1.3V50.7
			h4.9C6.9,50.7,7.5,50.8,8.1,51.2z M3,56.4h3.3c0.6,0,1.1-0.2,1.5-0.6c0.4-0.4,0.6-0.9,0.6-1.5c0-0.6-0.2-1-0.6-1.4
			c-0.4-0.4-0.9-0.5-1.5-0.5H3V56.4z M3,62.4h3.5c0.6,0,1.1-0.2,1.5-0.6c0.4-0.4,0.6-0.9,0.6-1.5c0-0.6-0.2-1.1-0.6-1.5
			c-0.4-0.4-0.8-0.7-1.3-0.7H3V62.4z"/>
		<path class="st2" d="M20.5,54.3c0.8,0.5,1.5,1.2,2,2c0.5,0.8,0.7,1.8,0.7,2.8c0,1-0.2,1.9-0.7,2.8s-1.2,1.5-2,2
			c-0.8,0.5-1.8,0.7-2.8,0.7c-1,0-1.9-0.2-2.8-0.7c-0.8-0.5-1.5-1.2-2-2S12.2,60,12.2,59c0-1,0.2-1.9,0.7-2.8c0.5-0.8,1.2-1.5,2-2
			c0.8-0.5,1.8-0.7,2.8-0.7C18.7,53.5,19.6,53.8,20.5,54.3z M15.8,55.7c-0.6,0.3-1.1,0.8-1.4,1.4c-0.3,0.6-0.5,1.2-0.5,1.9
			c0,0.7,0.2,1.3,0.5,1.9c0.3,0.6,0.8,1.1,1.4,1.4c0.6,0.3,1.2,0.5,1.9,0.5s1.3-0.2,1.9-0.5c0.6-0.3,1.1-0.8,1.4-1.4
			c0.3-0.6,0.5-1.2,0.5-1.9c0-0.7-0.2-1.3-0.5-1.9c-0.3-0.6-0.8-1.1-1.4-1.4s-1.2-0.5-1.9-0.5S16.4,55.4,15.8,55.7z"/>
		<path class="st2" d="M33.4,50.7h1.7V64h-1.7v-0.9c-0.2,0.4-0.7,0.7-1.3,1c-0.6,0.3-1.3,0.4-2,0.4c-0.9,0-1.8-0.2-2.6-0.7
			c-0.8-0.5-1.4-1.1-1.8-2C25.3,61,25.1,60,25.1,59c0-1,0.2-2,0.6-2.8s1-1.5,1.8-2c0.8-0.5,1.7-0.7,2.7-0.7c0.4,0,0.9,0.1,1.3,0.2
			c0.5,0.1,0.9,0.3,1.2,0.5c0.4,0.2,0.6,0.4,0.7,0.6V50.7z M28.3,55.8c-0.5,0.4-0.9,0.8-1.1,1.4c-0.3,0.6-0.4,1.2-0.4,1.9
			c0,0.6,0.1,1.2,0.4,1.8c0.3,0.6,0.6,1.1,1.2,1.5s1.1,0.6,1.8,0.6c0.9,0,1.7-0.3,2.4-0.9c0.7-0.6,1-1.6,1-2.9
			c0-1.3-0.3-2.2-0.9-2.9c-0.6-0.6-1.4-1-2.4-1C29.4,55.2,28.8,55.4,28.3,55.8z"/>
		<path class="st2" d="M41.8,66.2c-0.3,0.6-0.5,1.1-0.7,1.5c-0.2,0.4-0.5,0.7-0.8,0.9c-0.3,0.2-0.7,0.3-1.2,0.3
			c-0.3,0-0.6,0-0.9-0.1s-0.6-0.2-0.9-0.4l0.6-1.5c0.1,0,0.2,0.1,0.4,0.1c0.2,0.1,0.4,0.1,0.6,0.1c0.2,0,0.4-0.1,0.6-0.2
			c0.1-0.1,0.3-0.3,0.4-0.5c0.1-0.2,0.3-0.6,0.6-1.3l0.6-1.4L37.1,54h1.8l3,7.5l3-7.5h1.8L41.8,66.2z"/>
		<path class="st2" d="M60,52.3V64h-1.7V52.3h-4.1v-1.7H64v1.7H60z"/>
		<path class="st2" d="M74.2,54.7c0.7,0.8,1.1,2.2,1.1,4.1V64h-1.7v-5.3c0-1.2-0.2-2.1-0.6-2.7s-1.1-0.9-2.1-0.9
			c-0.5,0-1,0.1-1.5,0.4c-0.5,0.3-0.8,0.6-1.1,1.1c-0.3,0.5-0.4,1.1-0.4,1.8V64h-1.7V50.7H68v4.2c0.2-0.3,0.6-0.6,1.2-0.9
			c0.6-0.3,1.2-0.4,1.9-0.4C72.4,53.5,73.5,53.9,74.2,54.7z"/>
		<path class="st2" d="M85.5,63.9c-0.8,0.4-1.7,0.6-2.6,0.6c-1,0-1.9-0.2-2.8-0.7c-0.8-0.5-1.5-1.2-1.9-2S77.4,60,77.4,59
			c0-1,0.2-1.9,0.7-2.8c0.5-0.8,1.1-1.5,1.9-2c0.8-0.5,1.7-0.7,2.7-0.7c1,0,1.8,0.2,2.6,0.6s1.4,1,1.9,1.8c0.5,0.8,0.7,1.7,0.7,2.7
			c0,0.4-0.1,0.9-0.2,1.3h-8.6c0.1,0.4,0.3,0.9,0.7,1.4s0.8,0.8,1.4,1.1c0.5,0.3,1.1,0.4,1.7,0.4c0.6,0,1.2-0.1,1.8-0.4
			s1-0.6,1.3-1.1l1.5,0.8C86.9,62.9,86.3,63.4,85.5,63.9z M85.2,56c-0.6-0.6-1.4-0.9-2.4-0.9c-1,0-1.9,0.3-2.5,0.9
			c-0.6,0.6-1,1.3-1.2,2.2h7.1C86.2,57.4,85.8,56.6,85.2,56z"/>
		<path class="st2" d="M95.3,53.6c0.3,0.1,0.6,0.2,0.9,0.5l-0.9,1.7c-0.2-0.2-0.4-0.3-0.6-0.4c-0.2-0.1-0.5-0.1-0.9-0.1
			c-0.3,0-0.7,0.1-1,0.4c-0.3,0.3-0.5,0.6-0.7,1c-0.2,0.4-0.3,0.8-0.3,1.3V64h-1.7V54h1.7v0.8c0.2-0.3,0.6-0.6,1-0.9
			c0.5-0.3,0.9-0.4,1.4-0.4C94.7,53.5,95,53.6,95.3,53.6z"/>
		<path class="st2" d="M106.4,64h-1.7v-1.3c-0.1,0.3-0.4,0.5-0.8,0.8c-0.4,0.3-0.8,0.5-1.3,0.7s-1,0.3-1.6,0.3c-0.8,0-1.4-0.1-2-0.4
			c-0.6-0.3-1.1-0.7-1.4-1.2c-0.4-0.5-0.5-1.1-0.5-1.8c0-0.6,0.2-1.1,0.5-1.7c0.3-0.5,0.8-1,1.4-1.3c0.6-0.3,1.4-0.5,2.4-0.5
			c0.9,0,1.6,0,2.2,0.1c0.6,0.1,0.9,0.1,1,0.1c-0.2-1.8-1.2-2.7-2.9-2.7c-0.7,0-1.3,0.1-1.9,0.3c-0.5,0.2-1,0.4-1.3,0.7l-0.8-1.3
			c0.5-0.4,1.2-0.7,1.9-0.9c0.7-0.2,1.4-0.3,2-0.3c1.9,0,3.2,0.6,4,1.8c0.3,0.5,0.6,1.2,0.7,1.9s0.2,1.7,0.2,2.8V64z M103,62.4
			c0.5-0.3,1-0.7,1.3-1.2c0.3-0.5,0.4-1.1,0.4-1.7c0,0-0.4-0.1-1.3-0.1s-1.6-0.1-2.3-0.1c-0.6,0-1.2,0.1-1.6,0.4
			c-0.5,0.3-0.7,0.7-0.7,1.2c0,0.6,0.2,1.1,0.6,1.4c0.4,0.4,1,0.5,1.7,0.5C101.8,62.9,102.5,62.7,103,62.4z"/>
		<path class="st2" d="M110.7,68.4h-1.7V54h1.7v0.9c0.2-0.4,0.7-0.7,1.3-1c0.6-0.3,1.3-0.4,2-0.4c0.9,0,1.8,0.2,2.6,0.7
			c0.8,0.5,1.4,1.1,1.8,2c0.5,0.8,0.7,1.8,0.7,2.8c0,1-0.2,2-0.6,2.8c-0.4,0.8-1,1.5-1.8,2c-0.8,0.5-1.7,0.7-2.7,0.7
			c-0.4,0-0.9-0.1-1.3-0.2c-0.5-0.1-0.9-0.3-1.2-0.5c-0.4-0.2-0.6-0.4-0.7-0.6V68.4z M115.9,62.3c0.5-0.4,0.9-0.8,1.1-1.4
			c0.3-0.6,0.4-1.2,0.4-1.9c0-0.6-0.1-1.2-0.4-1.8c-0.3-0.6-0.6-1.1-1.2-1.5c-0.5-0.4-1.1-0.6-1.8-0.6c-0.9,0-1.7,0.3-2.4,0.9
			s-1,1.6-1,2.9c0,1.3,0.3,2.2,0.9,2.9c0.6,0.6,1.4,1,2.4,1C114.8,62.8,115.4,62.7,115.9,62.3z"/>
		<path class="st2" d="M125.5,66.2c-0.3,0.6-0.5,1.1-0.7,1.5c-0.2,0.4-0.5,0.7-0.8,0.9c-0.3,0.2-0.7,0.3-1.2,0.3
			c-0.3,0-0.6,0-0.9-0.1s-0.6-0.2-0.9-0.4l0.6-1.5c0.1,0,0.2,0.1,0.4,0.1c0.2,0.1,0.4,0.1,0.6,0.1c0.2,0,0.4-0.1,0.6-0.2
			c0.1-0.1,0.3-0.3,0.4-0.5c0.1-0.2,0.3-0.6,0.6-1.3l0.6-1.4l-3.9-9.9h1.8l3,7.5l3-7.5h1.8L125.5,66.2z"/>
	</g>
	<g id="XMLID_19_">
		
			<ellipse id="XMLID_44_" transform="matrix(0.9928 -0.1196 0.1196 0.9928 -0.553 7.2533)" class="st2" cx="60.2" cy="8.2" rx="5.3" ry="6.9"/>
		<path id="XMLID_31_" class="st2" d="M44.5,14c0,0,8.3,4.5,17.1,3.4c8.9-1.1,17.1-7.7,17.1-7.7s-9.9,11.1-15.9,11.8
			C56.8,22.2,45.3,16.5,44.5,14z"/>
		<path id="XMLID_23_" class="st2" d="M51,46.1c0,0,4.7-6.4,4.2-13.5c-0.5-7.1-6.2-13.9-6.2-13.9s9.8,8.3,10.1,13.1
			C59.4,36.6,53.4,45.6,51,46.1z"/>
		<path id="XMLID_20_" class="st2" d="M74.1,18.1c0,0-5,6.5-4.5,13.6s6.7,13.8,6.7,13.8s-10.5-8.1-10.8-12.9
			C65.1,27.8,71.5,18.7,74.1,18.1z"/>
	</g>
</g>
</svg>
